<svg width="26" height="26" viewBox="0 0 26 26" fill="none" xmlns="http://www.w3.org/2000/svg">
<path d="M1.97481 0.14092L25.2165 11.7061C25.4511 11.8229 25.6491 12.0064 25.7878 12.2354C25.9264 12.4643 26 12.7294 26 13C26 13.2706 25.9264 13.5357 25.7878 13.7646C25.6491 13.9936 25.4511 14.1771 25.2165 14.2939L1.97481 25.8591C1.73645 25.9779 1.47028 26.023 1.20799 25.9889C0.945704 25.9549 0.698357 25.8431 0.495411 25.6669C0.292465 25.4907 0.142474 25.2576 0.0633032 24.9952C-0.015868 24.7328 -0.0208827 24.4523 0.0488563 24.1871L2.37412 15.3187C2.40259 15.21 2.46117 15.1124 2.54258 15.0381C2.62398 14.9638 2.7246 14.9161 2.8319 14.9009L14.0942 13.3093C14.1412 13.3024 14.1856 13.2831 14.2233 13.2531C14.261 13.2232 14.2906 13.1836 14.3093 13.1383L14.3292 13.066C14.3379 13.0019 14.3255 12.9367 14.2941 12.8808C14.2626 12.825 14.214 12.7819 14.156 12.7584L14.0953 12.7412L2.84403 11.1507C2.73694 11.1353 2.63655 11.0875 2.55536 11.0132C2.47417 10.939 2.41575 10.8415 2.38736 10.733L0.0488563 1.81293C-0.0208827 1.54768 -0.015868 1.26717 0.0633032 1.00481C0.142474 0.742445 0.292465 0.509285 0.495411 0.333099C0.698357 0.156913 0.945704 0.0451267 1.20799 0.0110545C1.47028 -0.0230176 1.73645 0.0220604 1.97481 0.14092V0.14092Z" fill="#333333"/>
</svg>
