<svg width="23" height="20" viewBox="0 0 23 20" fill="none" xmlns="http://www.w3.org/2000/svg">
<path d="M22.6842 14.5995C23.1053 15.018 23.1053 15.6963 22.6842 16.1147L19.0905 19.6855C18.4162 20.3555 17.25 19.8859 17.25 18.9278V17.1429H14.6092C14.5353 17.1429 14.4622 17.1277 14.3944 17.0985C14.3266 17.0692 14.2656 17.0264 14.2151 16.9727L11.0456 13.5979L13.4415 11.0468L15.8125 13.5714H17.25V11.7866C17.25 10.8295 18.4154 10.3581 19.0905 11.0289L22.6842 14.5995ZM0.539062 6.42857H4.31249L6.68351 8.95317L9.07933 6.40214L5.90982 3.02732C5.85939 2.97361 5.79837 2.93079 5.73058 2.90152C5.66278 2.87224 5.58965 2.85714 5.51572 2.85714H0.539062C0.241365 2.85714 0 3.09701 0 3.39286V5.89286C0 6.18871 0.241365 6.42857 0.539062 6.42857ZM17.25 6.42857V8.21357C17.25 9.17161 18.4162 9.64125 19.0905 8.97121L22.6842 5.40049C23.1053 4.98205 23.1053 4.30366 22.6842 3.88527L19.0905 0.314685C18.4154 -0.356208 17.25 0.115266 17.25 1.07228V2.85714H14.6092C14.5353 2.85715 14.4622 2.87226 14.3944 2.90154C14.3266 2.93081 14.2656 2.97363 14.2151 3.02732L4.31249 13.5714H0.539062C0.241365 13.5714 0 13.8113 0 14.1071V16.6071C0 16.903 0.241365 17.1429 0.539062 17.1429H5.51572C5.66513 17.1429 5.80785 17.0812 5.90982 16.9727L15.8125 6.42857H17.25Z" fill="white"/>
</svg>
